<svg width="1107" height="866" viewBox="0 0 1107 866" fill="none" xmlns="http://www.w3.org/2000/svg">
<path d="M757.856 9.44156C732.385 9.44156 706.915 7.59216 681.445 4.81808C633.334 -0.730079 585.223 -12.7511 534.282 -31.245C513.057 -38.6426 493.247 -46.9648 473.436 -55.287C433.816 -71.9315 395.61 -86.7266 351.745 -96.8983C227.223 -126.488 111.191 -90.4254 9.30946 -58.9858L0.819336 -70.0821C106.946 -102.446 225.808 -140.359 357.405 -108.919C402.685 -98.7476 442.306 -83.0278 483.342 -66.3833C503.152 -58.9858 522.962 -50.6635 544.188 -43.266C593.713 -25.6968 640.409 -13.6758 687.105 -8.12765C794.646 5.74276 905.018 -14.6005 1001.24 -35.8685C1128.59 -64.534 1230.47 -83.9526 1333.77 -100.597L1338.01 -89.5007C1236.13 -73.7809 1134.25 -54.3623 1008.31 -25.6968C933.318 -9.05228 848.417 6.66751 762.101 6.66751L757.856 9.44156Z" fill="url(#paint0_linear_508_2617)"/>
<path d="M760.682 36.2565C732.382 36.2565 705.497 34.4071 677.196 31.633C630.5 25.1602 580.975 14.0638 530.034 -2.58064C511.639 -9.0535 493.243 -15.5264 474.848 -21.9993C432.397 -37.7191 392.777 -51.5895 346.081 -60.8364C231.464 -83.9538 133.828 -58.987 9.30605 -21.0745L2.23095 -32.1709C105.528 -63.6105 221.559 -98.7488 351.741 -71.9327C399.852 -62.6858 440.888 -47.8907 483.338 -32.1709C500.318 -25.6981 518.714 -19.2252 537.109 -12.7523C586.635 2.96746 633.331 14.9885 680.026 20.5367C783.323 33.4824 889.449 17.7626 989.916 -0.731285C1025.29 -7.20414 1059.25 -13.677 1093.21 -20.1499C1169.62 -34.0203 1248.86 -48.8154 1330.94 -61.7611L1335.18 -50.6648C1254.53 -37.7191 1175.28 -22.924 1098.87 -9.05355C1064.91 -2.5807 1029.54 3.89217 995.576 10.365C919.165 24.2354 839.924 37.1812 760.682 37.1812V36.2565Z" fill="url(#paint1_linear_508_2617)"/>
<path d="M764.937 63.073C735.222 63.073 704.092 61.2237 674.376 57.5249C629.095 51.0521 578.155 39.9557 527.214 25.1606C511.649 20.5372 494.668 14.989 480.518 10.3655C435.237 -4.42963 392.787 -17.3753 344.676 -25.6975C224.399 -46.0408 121.103 -16.4506 13.5611 14.989L6.48595 3.89265C112.613 -26.6223 222.984 -58.9865 350.336 -37.7186C399.862 -29.3963 443.728 -15.5259 490.423 -0.73082C505.989 3.89265 521.554 9.44081 537.119 14.0643C586.645 28.8594 636.17 39.9557 680.036 45.5039C783.333 59.3743 890.874 43.6545 987.096 30.7088C1064.92 19.6125 1139.92 6.66676 1217.74 -6.27896C1255.95 -12.7518 1295.57 -20.1494 1336.61 -26.6223L1340.85 -15.5259C1301.23 -9.05305 1260.2 -1.65553 1221.99 4.81733C1142.75 18.6877 1069.17 31.6335 989.926 41.8051C920.59 51.9767 842.764 62.1484 766.352 62.1484L764.937 63.073Z" fill="url(#paint2_linear_508_2617)"/>
<path d="M772.009 89.8886C738.049 89.8886 704.088 88.0392 671.543 83.4158C616.357 76.0182 561.171 63.0725 525.795 52.9008C513.06 49.2021 501.74 46.4279 489.005 42.7291C439.479 28.8587 394.198 15.913 341.843 8.51549C224.396 -8.12901 126.759 19.6118 14.9727 50.1267L7.89756 39.0304C118.269 8.51552 221.566 -21.0748 344.673 -3.50557C398.443 3.89198 445.139 16.8378 496.08 30.7082C507.4 34.4069 520.135 37.181 531.456 40.8798C566.831 50.1267 619.187 63.0724 674.373 70.47C769.179 83.4157 865.401 73.2441 960.207 63.9971C965.867 63.9971 971.527 63.0725 978.602 62.1478C1083.31 51.9762 1180.95 35.3316 1284.25 16.8378C1301.23 14.0637 1319.62 11.2896 1336.6 7.59081L1340.85 18.6871C1322.45 21.4612 1305.47 24.2353 1288.49 27.934C1183.78 45.5032 1086.14 63.0724 981.432 73.2441C975.772 73.2441 970.112 74.1687 963.037 75.0934C900.776 81.5663 835.685 88.0392 772.009 88.0392V89.8886Z" fill="url(#paint3_linear_508_2617)"/>
<path d="M783.314 117.631C745.109 117.631 705.488 115.781 667.282 110.233C614.927 102.835 558.326 90.8144 521.535 81.5674C514.46 79.7181 508.8 78.7934 501.725 76.944C446.539 63.9983 395.598 51.0526 337.582 44.5798C222.966 32.5587 129.574 57.5255 20.6176 87.1157H16.3725C16.3725 88.0404 9.29741 76.944 9.29741 76.944H13.5425C123.914 46.4291 220.136 20.5377 340.412 33.4834C399.843 39.9562 452.199 52.902 508.8 65.8477C514.46 67.6971 521.535 68.6218 528.61 70.4712C565.401 79.7181 619.172 91.7391 671.527 98.212C757.844 110.233 848.405 104.685 936.136 98.212C947.457 98.212 960.192 96.3626 971.512 96.3626C1091.79 88.9651 1203.58 69.5465 1321.02 49.2032L1338 46.4291L1342.25 57.5255L1325.27 60.2996C1206.41 80.6429 1093.2 100.986 972.927 108.384C961.607 108.384 948.872 110.233 937.552 110.233C886.611 113.932 834.255 116.706 783.314 116.706V117.631Z" fill="url(#paint4_linear_508_2617)"/>
<path d="M773.436 143.524C736.645 143.524 699.855 141.674 663.064 137.051C624.858 131.502 576.748 123.18 518.732 110.235C450.811 95.4394 397.04 85.2678 334.779 80.6444C222.992 72.3221 133.846 95.4395 29.1345 122.256L19.2293 125.03L12.1542 113.933L22.0594 111.159C128.186 83.4185 220.162 59.3764 336.194 68.6233C399.87 73.2468 455.056 84.3431 524.392 99.1382C582.408 111.159 629.104 120.406 667.309 125.954C725.325 134.277 789.001 132.427 849.847 130.578C888.052 129.653 929.088 128.728 965.879 130.578C1069.18 135.201 1165.4 116.707 1265.86 97.2889C1289.92 92.6654 1315.39 88.0419 1340.86 83.4185L1345.1 94.5148C1319.63 99.1382 1294.16 103.762 1270.11 108.385C1166.81 127.804 1070.59 146.298 963.049 141.674C926.258 139.825 888.052 141.674 848.432 141.674C822.961 141.674 797.491 143.524 772.021 143.524H773.436Z" fill="url(#paint5_linear_508_2617)"/>
<path d="M1018.21 176.811C998.402 176.811 978.592 176.81 957.367 174.036C917.746 170.338 876.71 170.338 832.845 171.262C774.829 171.262 716.813 171.262 660.212 162.94C619.176 157.392 572.481 148.145 531.445 140.747L517.295 137.973C452.204 125.952 397.018 117.63 333.342 114.856C224.385 110.233 143.729 130.576 40.4327 156.467L23.4524 160.166L16.3773 149.07L33.3576 145.371C135.239 120.404 221.555 98.2115 334.757 102.835C399.848 105.609 457.864 113.931 522.955 125.952L538.52 128.726C579.556 136.124 626.252 144.446 667.287 150.919C721.058 159.241 779.074 158.317 835.675 158.317C879.54 158.317 921.991 158.317 963.027 162.015C1071.98 171.262 1172.45 151.844 1278.58 131.501C1301.22 126.877 1323.86 122.254 1346.5 118.555L1350.74 129.651C1328.1 134.275 1304.05 137.973 1282.82 142.597C1193.68 160.166 1110.19 175.886 1019.63 175.886L1018.21 176.811Z" fill="url(#paint6_linear_508_2617)"/>
<path d="M1002.66 208.249C985.68 208.249 968.7 208.249 950.305 207.324C924.834 206.399 899.364 205.475 871.063 204.55C798.897 202.701 725.316 199.927 655.98 189.755C631.925 186.056 605.039 181.433 579.569 177.734C555.514 174.035 532.873 170.336 513.063 166.638C443.727 156.466 388.541 151.842 329.11 150.918C224.399 149.993 146.573 168.487 48.9361 191.604C40.446 193.454 33.3709 195.303 24.8808 197.152L19.2207 186.056C27.7108 184.207 36.201 182.357 43.2761 180.508C143.743 156.466 221.569 137.972 329.11 138.897C389.956 138.897 447.972 144.445 517.308 154.616C537.118 157.391 559.759 161.089 583.814 165.713C609.285 170.336 636.17 174.035 660.225 177.734C728.146 187.905 800.312 189.755 872.479 192.529C900.779 192.529 926.249 194.378 951.72 195.303C1093.22 201.776 1216.33 179.583 1346.51 154.616L1352.17 165.713C1236.14 186.981 1125.77 208.249 1004.08 208.249H1002.66Z" fill="url(#paint7_linear_508_2617)"/>
<path d="M1026.71 243.388C999.824 243.388 972.938 242.464 944.638 239.69C914.922 236.916 883.792 235.066 851.246 233.217C784.74 229.518 716.819 224.895 654.558 215.648C644.653 213.798 634.748 212.874 623.428 211.024C586.637 205.476 544.187 199.003 511.641 194.38C449.38 186.982 391.364 184.208 326.273 186.057C225.807 188.832 153.641 205.476 61.6645 226.744C50.3443 229.518 39.0242 232.292 27.704 234.142L22.0439 223.045C33.3641 220.271 44.6843 217.497 56.0044 215.648C149.396 194.38 222.977 176.811 326.273 174.961C392.779 173.112 450.795 175.886 514.471 184.208C548.432 187.907 590.883 195.305 627.673 200.853C637.578 202.702 648.898 204.551 657.389 205.476C718.234 214.723 786.155 219.346 851.246 223.045C883.792 224.895 914.922 226.744 944.638 229.518C1088.97 241.539 1209.25 218.422 1347.92 192.53L1353.58 203.627C1240.38 224.895 1138.5 244.313 1025.29 244.313L1026.71 243.388Z" fill="url(#paint8_linear_508_2617)"/>
<path d="M1040.86 278.526C1006.9 278.526 971.52 276.677 936.144 272.054C902.184 268.355 865.393 264.656 825.773 260.957C766.342 255.409 705.496 249.861 650.31 241.539C609.274 235.066 551.258 225.819 508.808 222.12C450.792 216.572 394.191 216.572 323.44 220.271C228.634 225.819 160.713 240.614 75.8113 259.108C61.6611 262.807 46.0959 265.581 29.1156 269.28L23.4555 258.183C39.0208 254.484 54.586 251.71 70.1512 248.012C156.468 228.593 225.804 213.798 322.025 208.25C392.776 204.551 452.207 204.551 511.638 210.099C555.504 213.798 614.934 223.045 655.97 229.518C711.156 237.84 772.002 243.388 830.018 248.936C869.638 252.635 906.429 255.409 940.389 260.033C1087.55 277.602 1210.66 253.56 1352.16 225.819L1357.82 236.915C1248.86 258.183 1149.81 277.602 1042.27 277.602L1040.86 278.526Z" fill="url(#paint9_linear_508_2617)"/>
<path d="M1053.61 314.59C1013.99 314.59 972.95 311.816 929.084 305.343C889.464 298.87 844.183 294.247 798.902 288.699C747.961 283.15 695.606 276.678 647.495 268.355C627.685 264.657 556.934 253.56 505.993 250.786C438.072 247.087 377.226 250.786 320.625 256.334C232.894 264.657 172.048 277.602 94.2216 294.247C74.4113 298.87 54.601 302.569 31.9607 307.193L26.3006 296.096C48.9409 291.473 68.7512 286.849 88.5615 283.15C166.388 266.506 228.649 253.56 317.795 245.238C374.396 239.69 436.657 235.991 507.408 239.69C558.349 242.464 624.855 252.635 651.74 257.259C698.436 264.656 750.792 271.129 801.732 276.678C847.013 282.226 892.294 287.774 933.329 293.322C1083.32 316.439 1200.77 293.322 1350.76 263.732H1355.01L1360.67 274.828H1356.42C1251.71 296.096 1156.9 315.515 1053.61 315.515V314.59Z" fill="url(#paint10_linear_508_2617)"/>
<path d="M1062.08 351.579C1016.8 351.579 970.108 347.88 921.997 338.633C872.471 329.386 815.871 321.064 760.685 312.741C721.064 307.193 681.444 301.645 644.653 295.172C606.447 288.699 545.602 280.377 504.566 279.453C443.72 277.603 387.119 283.151 319.198 291.474C241.372 301.645 186.186 312.741 121.095 326.612C94.2097 332.16 67.3243 337.708 36.1938 344.181L30.5338 333.085C61.6642 326.612 88.5496 321.064 115.435 315.516C180.526 301.645 237.127 290.549 314.953 280.377C384.289 272.055 442.305 266.507 504.566 267.432C548.432 268.356 609.278 276.678 648.898 283.151C685.689 289.624 725.309 295.172 764.93 300.721C820.116 309.043 878.132 317.365 927.657 326.612C1079.06 355.277 1197.93 331.236 1349.33 300.721L1357.82 298.871L1363.48 309.968L1354.99 311.817C1254.53 332.16 1162.55 350.654 1063.5 350.654L1062.08 351.579Z" fill="url(#paint11_linear_508_2617)"/>
<path d="M1069.16 387.642C1019.63 387.642 968.689 383.019 914.919 370.073C849.828 355.278 770.586 342.333 699.835 330.311C680.025 326.613 660.215 323.839 641.819 320.14C603.614 313.667 544.183 306.269 503.147 306.269C439.471 306.269 381.455 315.516 317.78 325.688C255.519 335.86 207.408 345.107 157.882 356.203C122.507 363.601 85.716 370.998 40.4353 379.32L36.1903 368.224C81.471 359.902 118.262 352.504 153.637 345.107C203.163 334.935 251.274 324.763 314.949 314.592C380.04 304.42 439.471 295.173 504.562 295.173C547.013 295.173 607.859 302.571 648.895 309.043C667.29 311.818 687.1 315.516 706.91 319.215C777.661 331.236 858.318 344.182 923.409 358.977C1076.23 393.191 1196.51 369.149 1347.92 337.709L1362.07 334.935L1367.73 346.031L1353.58 348.805C1255.94 369.149 1166.79 386.718 1071.99 386.718L1069.16 387.642Z" fill="url(#paint12_linear_508_2617)"/>
<path d="M1073.42 425.554C1019.65 425.554 965.874 419.081 906.444 403.362C814.467 379.319 698.435 358.052 636.174 347.88C596.554 340.482 537.123 334.934 497.502 335.859C435.241 337.708 377.226 349.729 314.965 361.75H312.135C276.759 370.073 247.044 375.621 217.328 382.094C160.727 394.115 111.202 404.286 39.0355 417.232L34.7904 406.136C106.957 394.115 155.067 383.018 211.668 370.997C239.969 364.524 271.099 358.052 306.475 351.579H309.305C372.981 338.633 432.411 326.612 496.087 324.763C537.123 322.913 600.799 330.311 641.835 336.784C702.681 347.88 820.127 369.148 913.519 393.19C1066.34 433.877 1192.28 407.985 1339.44 377.47C1346.52 375.621 1355.01 374.696 1362.08 372.847L1367.74 383.943C1360.67 385.792 1352.18 386.717 1345.1 388.566C1250.29 407.985 1163.98 426.479 1073.42 426.479V425.554Z" fill="url(#paint13_linear_508_2617)"/>
<path d="M1087.54 455.145C1033.77 455.145 978.583 448.672 920.567 432.952C838.496 410.76 742.274 390.416 660.203 376.546C619.167 370.073 561.152 368.224 514.456 371.922C443.705 378.395 380.029 388.567 319.183 399.663C227.207 416.308 169.191 423.705 94.1945 433.877C75.7992 436.651 57.404 438.5 36.1787 442.199L31.9336 430.178C53.1589 427.404 71.5542 424.63 89.9495 421.856C163.531 411.684 222.962 403.362 313.523 387.642C374.369 376.546 439.46 365.45 510.211 359.901C559.737 355.278 619.167 357.127 663.033 364.525C745.104 378.395 844.156 398.739 926.227 420.931C1073.39 460.693 1192.25 437.576 1343.66 408.91L1359.22 406.136L1364.88 417.232L1349.32 420.007C1257.34 437.576 1173.86 453.296 1087.54 453.296V455.145Z" fill="url(#paint14_linear_508_2617)"/>
<path d="M1101.71 485.658C1046.52 485.658 991.337 479.185 931.906 463.466C835.684 436.649 749.368 417.231 681.447 407.059C641.826 401.511 589.471 402.436 528.625 409.833C445.138 420.93 378.632 430.177 324.862 438.499C245.62 451.445 187.605 456.068 126.759 460.691C97.0432 463.466 65.9127 465.315 31.9522 469.014L29.1221 456.993C63.0827 453.294 94.2131 451.445 123.929 448.671C183.359 444.047 239.96 439.424 319.202 426.478C372.972 418.156 439.478 407.984 522.965 396.888C566.83 391.339 630.506 385.791 682.862 394.114C752.198 404.285 839.929 424.628 937.566 451.445C1079.07 490.282 1197.93 469.938 1347.92 444.047L1356.41 442.198L1360.66 453.294L1352.17 455.143C1260.19 470.863 1179.53 484.734 1098.88 484.734L1101.71 485.658Z" fill="url(#paint15_linear_508_2617)"/>
<path d="M1117.27 516.172C1060.67 516.172 1005.48 509.699 946.053 493.055C869.641 471.787 781.91 447.745 704.084 436.649C655.973 430.176 600.787 437.573 545.601 446.82C493.246 455.142 442.305 462.54 398.439 468.088C375.799 470.862 353.159 474.561 333.348 477.335C249.862 489.356 187.601 491.206 126.755 492.13C94.2097 492.13 64.4943 493.055 30.5338 495.829V483.808C63.0792 481.959 94.2097 481.034 125.34 480.109C184.771 479.185 245.617 477.335 327.688 465.314C347.499 462.54 368.724 459.766 392.779 456.067C436.645 449.594 487.586 443.122 539.941 434.799C597.957 424.628 655.973 417.23 706.914 424.628C786.155 435.724 875.302 459.766 951.713 481.959C1087.55 519.871 1206.42 502.302 1356.41 478.26L1359.24 483.808V489.356C1272.92 503.227 1193.68 515.248 1117.27 515.248V516.172Z" fill="url(#paint16_linear_508_2617)"/>
<path d="M1135.67 547.613C1077.66 547.613 1019.64 541.14 958.795 523.571L943.229 518.947C866.818 496.754 796.067 475.487 725.316 467.164C680.035 460.691 631.925 470.863 576.739 481.959C571.079 482.884 565.419 483.809 559.759 485.658C494.668 498.604 430.992 506.001 378.636 512.474C364.486 514.324 351.75 516.173 339.015 517.098C249.869 529.119 183.363 526.345 119.687 524.495C88.5564 523.571 58.841 522.646 27.7105 523.571V511.549C58.841 511.549 88.5565 511.55 121.102 512.474C183.363 514.324 248.454 517.098 336.185 505.077C348.92 503.227 361.656 502.303 375.806 500.453C426.747 493.98 490.423 486.583 554.099 473.637C559.759 472.712 565.419 471.788 571.079 469.938C629.095 458.842 678.62 448.67 729.561 455.143C801.727 464.39 873.893 485.658 951.72 507.851L967.285 512.474C1097.47 550.387 1217.74 533.742 1357.83 515.248L1362.08 527.269C1282.83 538.366 1209.25 547.613 1137.09 547.613H1135.67Z" fill="url(#paint17_linear_508_2617)"/>
<path d="M1152.64 578.131C1090.38 578.131 1032.36 571.658 971.516 553.164C958.781 549.466 947.461 545.767 934.726 542.068C866.805 521.725 808.789 504.156 747.943 496.758C704.077 491.21 664.457 501.382 613.516 513.403C600.781 516.177 589.461 518.951 575.31 521.725C501.729 538.369 429.563 545.767 375.792 551.315C365.887 552.24 355.982 553.165 346.077 554.089C249.856 565.186 176.274 558.713 111.183 554.089C81.468 551.315 53.1676 549.466 24.8671 548.541V536.52C54.5826 536.52 82.883 539.294 114.013 542.068C177.689 547.616 249.856 554.089 344.662 542.068C353.152 541.143 363.057 540.219 374.377 538.369C426.733 532.821 497.484 525.424 571.065 508.779C583.801 506.005 596.536 503.231 607.856 500.457C661.627 487.511 704.077 477.34 752.188 483.812C815.864 491.21 878.125 510.629 943.216 530.047C954.536 533.746 967.271 537.445 980.007 541.144C1096.04 576.282 1204.99 567.035 1356.4 549.466L1359.23 561.487C1281.41 570.734 1216.32 577.207 1154.05 577.207L1152.64 578.131Z" fill="url(#paint18_linear_508_2617)"/>
<path d="M1178.12 609.569C1111.61 609.569 1049.35 603.096 985.674 583.677C968.693 578.129 951.713 573.506 936.148 567.958C876.717 549.464 825.776 532.819 770.59 526.346C728.14 521.723 691.349 531.894 643.238 544.84C626.258 549.464 610.693 554.087 590.883 558.711C510.226 579.054 429.57 586.451 377.214 591.075C368.724 591.075 361.649 592.924 354.574 592.924C249.862 603.096 170.621 592.924 101.285 583.677C72.9847 579.979 47.5143 576.28 22.0439 574.43V562.409C50.3443 564.259 75.8147 567.957 104.115 571.656C172.036 580.903 249.862 591.075 350.329 580.903C357.404 580.903 364.479 579.054 372.969 579.054C425.325 574.43 503.151 567.033 582.392 547.614C600.788 542.991 617.768 538.367 633.333 533.744C684.274 519.873 723.895 508.777 770.59 514.325C828.606 520.798 880.962 537.443 940.393 556.861C955.958 561.485 972.938 567.033 989.919 572.581C1101.71 606.795 1214.91 599.397 1352.16 586.451L1354.99 598.472C1291.32 604.945 1231.89 609.569 1175.29 609.569H1178.12Z" fill="url(#paint19_linear_508_2617)"/>
<path d="M1203.59 641.007C1127.18 641.007 1062.09 633.61 998.415 613.266C978.605 606.793 958.795 600.321 941.815 594.772C889.459 577.203 844.178 561.483 793.237 556.86C750.787 552.237 716.826 563.333 670.13 578.128C651.735 583.676 630.51 591.074 606.455 596.622C518.723 619.739 430.992 627.137 380.051 630.836C372.976 630.836 367.316 631.76 361.656 632.685C248.454 641.932 160.723 626.212 89.9718 613.266C64.5014 608.643 41.861 604.019 19.2207 602.17L22.0507 590.149C44.6911 592.923 68.7464 597.546 94.2168 602.17C163.553 615.116 248.454 630.836 358.826 621.589C364.486 621.589 370.146 620.664 377.221 619.739C430.992 615.116 514.478 608.643 599.379 586.45C622.02 579.977 643.245 573.504 661.64 567.956C709.751 552.237 747.957 540.216 796.067 545.764C849.838 551.312 896.534 567.032 948.89 585.525C967.285 591.998 985.68 597.547 1005.49 604.019C1104.54 635.459 1203.59 635.459 1352.17 624.363V636.384C1296.98 641.007 1247.46 642.857 1202.18 642.857L1203.59 641.007Z" fill="url(#paint20_linear_508_2617)"/>
<path d="M1238.96 673.372C1154.05 673.372 1080.47 665.975 1011.14 642.858C988.497 635.46 968.687 628.062 948.877 621.589C900.766 604.02 862.56 590.15 815.864 585.526C773.414 581.828 740.868 592.924 695.588 609.568C674.362 616.966 650.307 625.288 622.006 633.611C527.2 660.427 436.639 665.975 382.868 669.674C377.208 669.674 372.963 669.674 368.718 670.598C245.611 678.921 152.219 657.653 77.2232 640.083C55.9979 635.46 34.7726 629.912 16.3773 627.138L20.6224 616.041C39.0176 619.74 60.243 624.364 82.8833 628.987C156.464 645.632 247.026 666.9 365.888 658.577C370.133 658.577 375.793 658.577 380.038 657.653C432.394 653.954 521.54 648.406 613.516 622.514C640.402 615.117 664.457 606.794 685.682 599.397C732.378 582.752 769.169 569.807 817.279 574.43C866.805 579.054 909.256 593.849 957.367 611.418C977.177 617.891 996.987 625.288 1018.21 632.686C1113.02 664.125 1216.32 665.975 1350.74 658.577V670.598C1311.12 672.448 1274.33 674.297 1237.54 674.297L1238.96 673.372Z" fill="url(#paint21_linear_508_2617)"/>
<path d="M331.934 710.359C218.732 710.359 129.586 685.393 63.0798 666.899C44.6846 662.275 29.1193 657.652 13.5541 653.953L19.2142 642.857C34.7794 646.555 51.7597 651.179 68.7399 656.727C142.321 677.07 242.788 705.736 372.969 698.338C375.8 698.338 380.045 698.338 384.29 698.338C435.23 695.564 530.037 690.941 629.088 661.351C660.219 652.104 685.689 641.932 708.33 632.685C753.61 615.116 790.401 600.321 838.511 604.944C885.207 608.643 920.583 622.513 965.863 640.083C984.259 647.48 1005.48 655.802 1030.95 664.125C1110.2 690.941 1203.59 700.188 1349.33 695.564V707.585C1200.76 712.209 1105.95 702.962 1022.46 674.296C996.994 665.974 975.768 657.652 957.373 650.254C913.508 633.61 879.547 620.664 837.096 616.965C794.646 613.267 762.1 626.212 718.235 642.857C695.594 652.104 668.709 662.275 636.163 671.522C535.697 702.037 438.06 706.661 385.705 709.435C381.46 709.435 378.63 709.435 374.385 709.435C358.819 709.435 344.669 710.359 330.519 710.359H331.934Z" fill="url(#paint22_linear_508_2617)"/>
<path d="M350.326 749.197C217.314 749.197 115.432 714.983 46.0963 691.865C33.3611 687.242 20.6259 683.543 10.7208 679.845L17.7959 668.748C29.1161 672.447 41.8513 676.146 54.5864 680.769C128.168 704.811 238.539 741.799 381.456 736.251C384.286 736.251 387.116 736.251 389.947 736.251C439.472 734.401 539.939 730.703 644.65 697.414C680.026 686.317 706.911 674.296 732.382 664.125C777.662 644.706 813.038 629.911 862.564 633.61C907.844 637.309 938.975 650.254 980.01 666.899C998.406 674.296 1021.05 683.543 1046.52 692.79C1122.93 719.606 1217.73 731.627 1350.75 730.703V742.724C1214.9 743.648 1117.27 731.627 1038.03 703.887C1011.14 694.64 989.915 685.393 970.105 677.995C930.485 661.351 900.769 649.33 861.149 646.556C817.283 642.857 786.153 656.727 742.287 675.221C716.816 686.317 689.931 698.338 653.141 709.435C545.599 742.724 442.302 747.347 391.362 749.197C388.531 749.197 385.701 749.197 382.871 749.197C371.551 749.197 361.646 749.197 350.326 749.197Z" fill="url(#paint23_linear_508_2617)"/>
<path d="M370.143 787.108C214.491 787.108 98.4589 741.798 27.7079 714.057C20.6328 711.283 13.5576 708.509 7.89756 706.66L16.3877 696.488C22.0478 699.262 29.1229 701.112 36.198 704.811C108.364 732.551 228.641 779.711 388.538 776.012H394.198C440.894 775.087 548.436 772.313 658.807 736.25C697.013 723.304 726.728 710.359 752.199 698.338C796.065 677.995 831.44 661.35 882.381 665.049C924.831 667.823 953.132 680.768 989.922 696.488C1008.32 704.81 1029.54 714.057 1057.84 724.229C1132.84 751.045 1227.65 765.84 1347.92 767.69V779.711C1223.4 777.861 1125.76 763.066 1049.35 734.401C1021.05 724.229 999.828 714.982 980.017 706.66C944.642 690.94 919.171 679.844 880.966 677.07C835.685 674.296 805.97 688.166 762.104 708.509C735.219 720.53 705.503 734.401 665.883 747.346C551.266 784.334 440.894 787.108 394.198 788.958H388.538C381.463 788.958 374.388 788.958 368.728 788.958L370.143 787.108Z" fill="url(#paint24_linear_508_2617)"/>
<path d="M388.535 825.022C204.582 825.022 70.1552 763.067 5.06425 732.552L14.9694 722.38C80.0604 752.895 214.487 814.85 395.61 813.001H398.44C440.891 813.001 555.508 811.151 672.954 771.389C715.405 757.519 746.536 741.799 773.421 727.929C817.287 705.736 852.662 689.091 905.018 691.866C946.054 694.64 970.109 705.736 1004.07 721.456C1022.46 729.778 1043.69 739.95 1071.99 751.046C1145.57 778.787 1238.96 795.431 1347.92 800.055V812.076C1234.72 807.452 1139.91 789.883 1063.5 761.218C1035.2 750.121 1012.56 739.95 994.164 730.703C961.619 714.983 940.393 704.811 905.018 702.962C859.737 700.188 828.607 715.908 786.156 736.251C757.856 750.121 726.725 765.841 682.86 780.636C561.168 821.323 443.721 823.172 399.855 823.172H397.025C394.195 823.172 391.365 823.172 388.535 823.172V825.022Z" fill="url(#paint25_linear_508_2617)"/>
<path d="M416.836 863.857C411.176 863.857 406.931 863.857 404.1 863.857C225.808 862.932 87.1357 805.601 0.819336 758.442L12.1395 749.195C95.6258 795.429 231.468 850.911 402.685 851.836C442.306 851.836 562.583 852.76 688.52 809.3C733.801 793.58 766.346 776.011 794.646 761.216C838.512 738.098 872.473 719.604 926.243 722.378C964.449 724.228 987.089 735.324 1016.8 751.044C1035.2 760.291 1055.01 770.462 1083.31 782.483C1158.31 812.074 1246.04 830.568 1343.67 837.965V849.986C1240.38 842.589 1149.82 824.095 1073.41 793.58C1043.69 781.559 1022.46 770.463 1004.07 762.14C974.354 746.42 955.959 737.173 923.413 736.249C876.718 734.399 845.587 750.119 804.552 772.312C774.836 788.032 742.291 804.676 695.595 821.321C578.148 862.007 464.946 865.706 415.421 865.706L416.836 863.857Z" fill="url(#paint26_linear_508_2617)"/>
<defs>
<linearGradient id="paint0_linear_508_2617" x1="30.8193" y1="803.58" x2="1376.5" y2="803.58" gradientUnits="userSpaceOnUse">
<stop stop-color="#FD01B7" stop-opacity="0"/>
<stop offset="0.485" stop-color="#FD01B0"/>
<stop offset="0.695" stop-color="#FD0187"/>
<stop offset="1" stop-color="#FD0044"/>
</linearGradient>
<linearGradient id="paint1_linear_508_2617" x1="30.8193" y1="803.58" x2="1376.5" y2="803.58" gradientUnits="userSpaceOnUse">
<stop stop-color="#FD01B7" stop-opacity="0"/>
<stop offset="0.485" stop-color="#FD01B0"/>
<stop offset="0.695" stop-color="#FD0187"/>
<stop offset="1" stop-color="#FD0044"/>
</linearGradient>
<linearGradient id="paint2_linear_508_2617" x1="30.8193" y1="803.58" x2="1376.5" y2="803.58" gradientUnits="userSpaceOnUse">
<stop stop-color="#FD01B7" stop-opacity="0"/>
<stop offset="0.485" stop-color="#FD01B0"/>
<stop offset="0.695" stop-color="#FD0187"/>
<stop offset="1" stop-color="#FD0044"/>
</linearGradient>
<linearGradient id="paint3_linear_508_2617" x1="30.8193" y1="803.58" x2="1376.5" y2="803.58" gradientUnits="userSpaceOnUse">
<stop stop-color="#FD01B7" stop-opacity="0"/>
<stop offset="0.485" stop-color="#FD01B0"/>
<stop offset="0.695" stop-color="#FD0187"/>
<stop offset="1" stop-color="#FD0044"/>
</linearGradient>
<linearGradient id="paint4_linear_508_2617" x1="30.8193" y1="803.58" x2="1376.5" y2="803.58" gradientUnits="userSpaceOnUse">
<stop stop-color="#FD01B7" stop-opacity="0"/>
<stop offset="0.485" stop-color="#FD01B0"/>
<stop offset="0.695" stop-color="#FD0187"/>
<stop offset="1" stop-color="#FD0044"/>
</linearGradient>
<linearGradient id="paint5_linear_508_2617" x1="30.8193" y1="803.58" x2="1376.5" y2="803.58" gradientUnits="userSpaceOnUse">
<stop stop-color="#FD01B7" stop-opacity="0"/>
<stop offset="0.485" stop-color="#FD01B0"/>
<stop offset="0.695" stop-color="#FD0187"/>
<stop offset="1" stop-color="#FD0044"/>
</linearGradient>
<linearGradient id="paint6_linear_508_2617" x1="30.8193" y1="803.58" x2="1376.5" y2="803.58" gradientUnits="userSpaceOnUse">
<stop stop-color="#FD01B7" stop-opacity="0"/>
<stop offset="0.485" stop-color="#FD01B0"/>
<stop offset="0.695" stop-color="#FD0187"/>
<stop offset="1" stop-color="#FD0044"/>
</linearGradient>
<linearGradient id="paint7_linear_508_2617" x1="30.8193" y1="803.58" x2="1376.5" y2="803.58" gradientUnits="userSpaceOnUse">
<stop stop-color="#FD01B7" stop-opacity="0"/>
<stop offset="0.485" stop-color="#FD01B0"/>
<stop offset="0.695" stop-color="#FD0187"/>
<stop offset="1" stop-color="#FD0044"/>
</linearGradient>
<linearGradient id="paint8_linear_508_2617" x1="30.8193" y1="803.58" x2="1376.5" y2="803.58" gradientUnits="userSpaceOnUse">
<stop stop-color="#FD01B7" stop-opacity="0"/>
<stop offset="0.485" stop-color="#FD01B0"/>
<stop offset="0.695" stop-color="#FD0187"/>
<stop offset="1" stop-color="#FD0044"/>
</linearGradient>
<linearGradient id="paint9_linear_508_2617" x1="30.8193" y1="803.58" x2="1376.5" y2="803.58" gradientUnits="userSpaceOnUse">
<stop stop-color="#FD01B7" stop-opacity="0"/>
<stop offset="0.485" stop-color="#FD01B0"/>
<stop offset="0.695" stop-color="#FD0187"/>
<stop offset="1" stop-color="#FD0044"/>
</linearGradient>
<linearGradient id="paint10_linear_508_2617" x1="30.8193" y1="803.58" x2="1376.5" y2="803.58" gradientUnits="userSpaceOnUse">
<stop stop-color="#FD01B7" stop-opacity="0"/>
<stop offset="0.485" stop-color="#FD01B0"/>
<stop offset="0.695" stop-color="#FD0187"/>
<stop offset="1" stop-color="#FD0044"/>
</linearGradient>
<linearGradient id="paint11_linear_508_2617" x1="30.8193" y1="803.58" x2="1376.5" y2="803.58" gradientUnits="userSpaceOnUse">
<stop stop-color="#FD01B7" stop-opacity="0"/>
<stop offset="0.485" stop-color="#FD01B0"/>
<stop offset="0.695" stop-color="#FD0187"/>
<stop offset="1" stop-color="#FD0044"/>
</linearGradient>
<linearGradient id="paint12_linear_508_2617" x1="30.8193" y1="803.58" x2="1376.5" y2="803.58" gradientUnits="userSpaceOnUse">
<stop stop-color="#FD01B7" stop-opacity="0"/>
<stop offset="0.485" stop-color="#FD01B0"/>
<stop offset="0.695" stop-color="#FD0187"/>
<stop offset="1" stop-color="#FD0044"/>
</linearGradient>
<linearGradient id="paint13_linear_508_2617" x1="30.8193" y1="803.58" x2="1376.5" y2="803.58" gradientUnits="userSpaceOnUse">
<stop stop-color="#FD01B7" stop-opacity="0"/>
<stop offset="0.485" stop-color="#FD01B0"/>
<stop offset="0.695" stop-color="#FD0187"/>
<stop offset="1" stop-color="#FD0044"/>
</linearGradient>
<linearGradient id="paint14_linear_508_2617" x1="30.8193" y1="803.58" x2="1376.5" y2="803.58" gradientUnits="userSpaceOnUse">
<stop stop-color="#FD01B7" stop-opacity="0"/>
<stop offset="0.485" stop-color="#FD01B0"/>
<stop offset="0.695" stop-color="#FD0187"/>
<stop offset="1" stop-color="#FD0044"/>
</linearGradient>
<linearGradient id="paint15_linear_508_2617" x1="30.8193" y1="803.58" x2="1376.5" y2="803.58" gradientUnits="userSpaceOnUse">
<stop stop-color="#FD01B7" stop-opacity="0"/>
<stop offset="0.485" stop-color="#FD01B0"/>
<stop offset="0.695" stop-color="#FD0187"/>
<stop offset="1" stop-color="#FD0044"/>
</linearGradient>
<linearGradient id="paint16_linear_508_2617" x1="30.8193" y1="803.58" x2="1376.5" y2="803.58" gradientUnits="userSpaceOnUse">
<stop stop-color="#FD01B7" stop-opacity="0"/>
<stop offset="0.485" stop-color="#FD01B0"/>
<stop offset="0.695" stop-color="#FD0187"/>
<stop offset="1" stop-color="#FD0044"/>
</linearGradient>
<linearGradient id="paint17_linear_508_2617" x1="30.8193" y1="803.58" x2="1376.5" y2="803.58" gradientUnits="userSpaceOnUse">
<stop stop-color="#FD01B7" stop-opacity="0"/>
<stop offset="0.485" stop-color="#FD01B0"/>
<stop offset="0.695" stop-color="#FD0187"/>
<stop offset="1" stop-color="#FD0044"/>
</linearGradient>
<linearGradient id="paint18_linear_508_2617" x1="30.8193" y1="803.58" x2="1376.5" y2="803.58" gradientUnits="userSpaceOnUse">
<stop stop-color="#FD01B7" stop-opacity="0"/>
<stop offset="0.485" stop-color="#FD01B0"/>
<stop offset="0.695" stop-color="#FD0187"/>
<stop offset="1" stop-color="#FD0044"/>
</linearGradient>
<linearGradient id="paint19_linear_508_2617" x1="30.8193" y1="803.58" x2="1376.5" y2="803.58" gradientUnits="userSpaceOnUse">
<stop stop-color="#FD01B7" stop-opacity="0"/>
<stop offset="0.485" stop-color="#FD01B0"/>
<stop offset="0.695" stop-color="#FD0187"/>
<stop offset="1" stop-color="#FD0044"/>
</linearGradient>
<linearGradient id="paint20_linear_508_2617" x1="30.8193" y1="803.58" x2="1376.5" y2="803.58" gradientUnits="userSpaceOnUse">
<stop stop-color="#FD01B7" stop-opacity="0"/>
<stop offset="0.485" stop-color="#FD01B0"/>
<stop offset="0.695" stop-color="#FD0187"/>
<stop offset="1" stop-color="#FD0044"/>
</linearGradient>
<linearGradient id="paint21_linear_508_2617" x1="30.8193" y1="803.58" x2="1376.5" y2="803.58" gradientUnits="userSpaceOnUse">
<stop stop-color="#FD01B7" stop-opacity="0"/>
<stop offset="0.485" stop-color="#FD01B0"/>
<stop offset="0.695" stop-color="#FD0187"/>
<stop offset="1" stop-color="#FD0044"/>
</linearGradient>
<linearGradient id="paint22_linear_508_2617" x1="30.8193" y1="803.58" x2="1376.5" y2="803.58" gradientUnits="userSpaceOnUse">
<stop stop-color="#FD01B7" stop-opacity="0"/>
<stop offset="0.485" stop-color="#FD01B0"/>
<stop offset="0.695" stop-color="#FD0187"/>
<stop offset="1" stop-color="#FD0044"/>
</linearGradient>
<linearGradient id="paint23_linear_508_2617" x1="30.8193" y1="803.58" x2="1376.5" y2="803.58" gradientUnits="userSpaceOnUse">
<stop stop-color="#FD01B7" stop-opacity="0"/>
<stop offset="0.485" stop-color="#FD01B0"/>
<stop offset="0.695" stop-color="#FD0187"/>
<stop offset="1" stop-color="#FD0044"/>
</linearGradient>
<linearGradient id="paint24_linear_508_2617" x1="30.8193" y1="803.58" x2="1376.5" y2="803.58" gradientUnits="userSpaceOnUse">
<stop stop-color="#FD01B7" stop-opacity="0"/>
<stop offset="0.485" stop-color="#FD01B0"/>
<stop offset="0.695" stop-color="#FD0187"/>
<stop offset="1" stop-color="#FD0044"/>
</linearGradient>
<linearGradient id="paint25_linear_508_2617" x1="30.8193" y1="803.58" x2="1376.5" y2="803.58" gradientUnits="userSpaceOnUse">
<stop stop-color="#FD01B7" stop-opacity="0"/>
<stop offset="0.485" stop-color="#FD01B0"/>
<stop offset="0.695" stop-color="#FD0187"/>
<stop offset="1" stop-color="#FD0044"/>
</linearGradient>
<linearGradient id="paint26_linear_508_2617" x1="30.8193" y1="803.58" x2="1376.5" y2="803.58" gradientUnits="userSpaceOnUse">
<stop stop-color="#FD01B7" stop-opacity="0"/>
<stop offset="0.485" stop-color="#FD01B0"/>
<stop offset="0.695" stop-color="#FD0187"/>
<stop offset="1" stop-color="#FD0044"/>
</linearGradient>
</defs>
</svg>
