<svg width="262" height="37" viewBox="0 0 262 37" fill="none" xmlns="http://www.w3.org/2000/svg">
<mask id="mask0_853_1447" style="mask-type:luminance" maskUnits="userSpaceOnUse" x="0" y="0" width="36" height="37">
<path d="M17.6067 36.1067C27.3306 36.1067 35.2134 28.2239 35.2134 18.5C35.2134 8.77609 27.3306 0.893311 17.6067 0.893311C7.88278 0.893311 0 8.77609 0 18.5C0 28.2239 7.88278 36.1067 17.6067 36.1067Z" fill="white"/>
</mask>
<g mask="url(#mask0_853_1447)">
<path d="M19.761 1.97036C18.9739 1.97036 18.2282 1.8875 17.4411 1.76322C15.9912 1.47323 14.5412 0.934671 13.0084 0.106121C12.387 -0.225299 11.7656 -0.598149 11.1856 -0.970996C10.0256 -1.67526 8.94848 -2.37953 7.70565 -2.7938C4.47431 -3.95377 1.49153 -2.79381 -2.02981 -1.09528L-2.56836 -2.25525C-0.786977 -3.0838 0.82868 -3.82949 2.56863 -4.24377C4.59858 -4.69947 6.42139 -4.65804 8.16135 -3.9952C9.52845 -3.5395 10.7299 -2.79381 11.8898 -2.04811C12.4698 -1.71669 13.0498 -1.34385 13.6298 -1.01243C15.0383 -0.225304 16.364 0.271831 17.6897 0.520396C20.7553 1.14181 23.9452 0.2304 26.6794 -0.681005C30.4079 -1.96526 33.3907 -2.87666 36.4149 -3.58093L36.7049 -2.3381C33.7221 -1.63384 30.7808 -0.763856 27.0937 0.520396C24.8566 1.26609 22.371 2.01178 19.8025 2.01178L19.761 1.97036Z" fill="url(#paint0_linear_853_1447)"/>
<path d="M19.9685 4.58033C19.0571 4.58033 18.1457 4.49748 17.2343 4.33177C15.5358 4.00035 13.9201 3.33751 12.8844 2.88181C12.4287 2.67467 11.973 2.46754 11.5587 2.2604C10.233 1.63899 8.99022 1.01757 7.58169 0.686152C4.18463 -0.183825 1.24327 1.14185 -1.86379 2.50896L-2.40234 1.34899C0.746146 -0.0595405 4.06035 -1.5095 7.87168 -0.515243C9.4045 -0.142395 10.6887 0.479017 12.0973 1.14186C12.5115 1.34899 12.9672 1.55613 13.423 1.76327C14.8315 2.38468 16.24 2.88181 17.5243 3.13037C20.4242 3.71036 23.407 3.13037 26.3483 2.50896C28.7926 2.01183 31.1125 1.39042 33.5567 0.769006C34.551 0.520441 35.5867 0.230451 36.6223 -0.0181143L36.9538 1.22471C35.9181 1.47328 34.8824 1.76327 33.8881 2.01183C31.4439 2.67467 29.0826 3.25466 26.6383 3.79321C24.567 4.20749 22.3299 4.66319 20.0928 4.66319L19.9685 4.58033Z" fill="url(#paint1_linear_853_1447)"/>
<path d="M20.6731 7.23163C19.4302 7.23163 18.2289 7.14877 16.986 6.90021C15.4532 6.56879 13.7961 6.03023 12.6776 5.61595L12.3462 5.49168C10.6062 4.87026 9.11481 4.3317 7.37486 4.08314C4.14351 3.58601 1.49215 4.70455 -1.57349 5.94737L-1.73919 6.03023L-2.23633 4.82883L-2.07062 4.74598C1.16072 3.4203 3.9778 2.26033 7.58199 2.79889C9.44623 3.08888 11.0619 3.66887 12.8018 4.24885L13.1333 4.37313C14.2104 4.74598 15.826 5.28454 17.276 5.57453C19.6788 6.07166 22.2473 5.86452 24.733 5.65738C25.1472 5.65738 25.5201 5.57453 25.9344 5.57453C29.5386 5.28454 32.7285 4.45598 36.4155 3.46172L36.7055 3.37887L37.0369 4.6217L36.7469 4.70455C33.1427 5.65738 29.7457 6.56879 26.0172 6.85878C25.6444 6.85878 25.2301 6.94164 24.8158 6.94164C23.4487 7.06592 22.0402 7.1902 20.6317 7.1902L20.6731 7.23163Z" fill="url(#paint2_linear_853_1447)"/>
<path d="M27.5909 10.2143C26.8867 10.2143 26.1824 10.1729 25.4367 10.0486C24.2767 9.88293 23.0339 9.8415 21.7497 9.8415C20.0926 9.8415 18.394 9.80008 16.8198 9.42723C15.9084 9.22009 14.8727 8.9301 13.837 8.68153C13.3813 8.55725 12.967 8.47439 12.5942 8.35011C10.4814 7.81155 8.94857 7.56299 7.29147 7.48013C4.26727 7.35585 1.94733 8.22583 -0.952594 9.30294C-1.15973 9.3858 -1.36687 9.46865 -1.53258 9.51008L-1.98828 8.30868C-1.78114 8.22583 -1.57401 8.14297 -1.4083 8.10154C1.53305 7.02443 4.06012 6.0716 7.33289 6.19588C9.07285 6.27874 10.7299 6.5273 12.9256 7.10729C13.2985 7.19014 13.7542 7.31442 14.1684 7.43871C15.1627 7.68727 16.1984 7.97727 17.1098 8.1844C18.6012 8.51582 20.2169 8.55725 21.7911 8.55725C23.0753 8.55725 24.4425 8.59868 25.6853 8.80582C28.8752 9.30295 31.858 8.43296 34.965 7.48013C35.5864 7.27299 36.2493 7.10729 36.8707 6.90015L37.2021 8.14297C36.5393 8.30868 35.9179 8.51582 35.2965 8.72296C32.6865 9.51008 30.2009 10.2558 27.5909 10.2558V10.2143Z" fill="url(#paint3_linear_853_1447)"/>
<path d="M27.9219 13.4871C26.9691 13.4871 26.0163 13.4043 24.9806 13.2386C24.0278 13.0729 23.0335 12.9486 21.9564 12.8243C20.1336 12.6172 18.2693 12.3686 16.5294 11.9543C15.3694 11.6643 13.6295 11.2501 12.3866 11.0843C10.6881 10.8358 9.03102 10.7529 7.04251 10.9186C4.26686 11.1258 2.23691 11.7886 -0.290166 12.6586C-0.704441 12.7829 -1.07729 12.9486 -1.53299 13.0729L-1.94727 11.8715C-1.53299 11.7472 -1.11873 11.5815 -0.745883 11.4572C1.90548 10.5458 3.97685 9.84152 6.9182 9.63438C8.98958 9.46867 10.7295 9.55153 12.5524 9.84152C13.8366 10.0487 15.618 10.4629 16.778 10.7529C18.4351 11.1672 20.2579 11.3743 22.0392 11.5815C23.1164 11.7058 24.1521 11.83 25.1049 11.9957C29.2891 12.7 32.8104 11.6643 36.9117 10.4215L37.2846 11.6643C34.0118 12.6172 31.0704 13.4871 27.8391 13.4871H27.9219Z" fill="url(#paint4_linear_853_1447)"/>
<path d="M28.6263 17.0086C27.3006 17.0086 25.9335 16.8429 24.4835 16.4286C23.1164 16.0557 21.5007 15.6829 19.9679 15.3515C18.7665 15.1029 17.4823 14.8129 16.3637 14.5229C15.2452 14.2329 13.5052 13.9015 12.3038 13.8187C10.5224 13.7358 8.90679 13.9429 6.9597 14.3158C4.63976 14.7301 2.98266 15.2686 1.07699 15.89C0.331295 16.1386 -0.414404 16.3872 -1.28438 16.6357L-1.65723 15.3929C-0.787249 15.1443 -0.041562 14.8958 0.704133 14.6472C2.69265 14.0258 4.39119 13.4872 6.75256 13.0315C8.78251 12.6587 10.481 12.4101 12.3867 12.5344C13.6709 12.6173 15.4523 12.9487 16.6952 13.2801C17.8137 13.5701 19.0565 13.8187 20.2579 14.1086C21.8322 14.4401 23.4478 14.8129 24.8564 15.1858C29.1648 16.3872 32.6033 15.3515 36.9532 14.0258L37.2018 13.9429L37.5746 15.1858L37.326 15.2686C34.3018 16.18 31.609 17.0086 28.6677 17.0086H28.6263Z" fill="url(#paint5_linear_853_1447)"/>
<path d="M28.999 20.5713C27.3834 20.5713 25.7677 20.2813 23.9863 19.577C21.2935 18.5413 17.8965 17.5471 16.1565 17.0914C15.038 16.8014 13.3394 16.5114 12.1794 16.5528C10.3981 16.6357 8.69953 17.1328 6.91815 17.6714H6.83532C5.79963 18.0028 4.92964 18.2928 4.10109 18.5828C2.44399 19.1213 0.994034 19.577 -1.11877 20.157L-1.4502 18.9142C0.621179 18.3756 2.07114 17.9199 3.68681 17.3814C4.51536 17.0914 5.42677 16.8014 6.46246 16.5114H6.58674C8.45097 15.9314 10.2324 15.3929 12.138 15.31C13.4637 15.2271 15.3279 15.5586 16.4879 15.89C18.3107 16.3871 21.7492 17.3399 24.4834 18.4171C28.8333 20.1984 32.3132 19.0799 36.6631 17.6714C36.8702 17.5885 37.1188 17.5471 37.3259 17.4642L37.6988 18.707C37.4917 18.7899 37.2431 18.8313 37.0359 18.9142C34.2603 19.7842 31.6918 20.6127 28.999 20.6127V20.5713Z" fill="#FD01B7"/>
<path d="M29.9107 23.5126C28.2536 23.5126 26.5965 23.2226 24.8151 22.4769C21.9566 21.2755 19.5124 20.4056 17.5653 19.9913C16.4882 19.7427 15.0382 19.8256 13.2154 20.1984H12.9254C10.854 20.6956 8.90694 21.1098 7.24984 21.5241C4.88848 22.1041 3.10708 22.2698 1.40855 22.4769C0.538576 22.5598 -0.372821 22.6426 -1.36708 22.8084L-1.57422 21.5241C-0.538531 21.3584 0.372881 21.2755 1.24286 21.1927C2.98281 21.027 4.63989 20.8198 6.9184 20.2813C8.61693 19.867 10.564 19.4527 12.6354 19.0385H12.9254C14.9139 18.5413 16.5296 18.4999 17.8139 18.7899C19.8438 19.2456 22.3295 20.1156 25.2708 21.3584C29.2478 23.0569 32.6863 22.1455 36.9948 21.027H37.2019C37.2019 20.9856 37.5333 22.2284 37.5333 22.2284H37.3262C34.7163 22.9741 32.3135 23.5955 29.8692 23.5955L29.9107 23.5126Z" fill="url(#paint6_linear_853_1447)"/>
<path d="M31.0296 26.4954C29.2482 26.4954 27.4669 26.2054 25.6441 25.3769C25.3955 25.2526 25.1883 25.1698 24.9398 25.0455C22.8684 24.0926 20.9213 23.2227 19.0157 22.8498C17.8143 22.6013 16.5714 23.0155 14.9972 23.5127C14.7486 23.5955 14.5001 23.6784 14.2515 23.7612C12.2215 24.3826 10.2745 24.7555 8.70022 25.0455C8.32737 25.1283 7.99595 25.1698 7.66453 25.2526C4.93032 25.7912 2.8175 25.6255 0.994693 25.4597C0.0832877 25.3769 -0.745257 25.3355 -1.61523 25.3355V24.0512C-0.70383 24.0512 0.166148 24.0926 1.07755 24.1755C2.94179 24.3412 4.84745 24.4655 7.41595 23.9684C7.74737 23.9269 8.07879 23.8441 8.45164 23.7612C9.98446 23.4712 11.8901 23.1398 13.8372 22.5184C14.0858 22.4355 14.3344 22.3527 14.5415 22.2698C16.1986 21.7313 17.6486 21.2756 19.1814 21.5656C21.2113 21.9798 23.2413 22.8912 25.3955 23.8441C25.6441 23.9684 25.8512 24.0512 26.0998 24.1755C29.4968 25.7083 32.5624 25.2526 37.1609 24.3412L37.4095 25.6255C35.2138 26.0397 33.101 26.4954 30.9882 26.4954H31.0296Z" fill="url(#paint7_linear_853_1447)"/>
<path d="M32.4381 29.5196C30.3668 29.5196 28.3782 29.1882 26.4311 28.2768C25.8926 28.0282 25.354 27.7382 24.8569 27.4896C23.2827 26.7025 21.8741 25.9982 20.3827 25.7497C19.2642 25.584 18.2699 25.9982 16.9442 26.6197C16.4471 26.8682 15.8671 27.1168 15.2043 27.3653C12.6772 28.3596 10.2744 28.691 8.65874 28.8982C8.4516 28.8982 8.24448 28.9396 8.07877 28.981C4.806 29.4367 2.27891 28.8153 0.248961 28.3182C-0.538161 28.111 -1.24243 27.9453 -1.90527 27.8625L-1.73955 26.5782C-0.993858 26.6611 -0.248163 26.8682 0.538959 27.0754C2.56891 27.5725 4.84742 28.111 7.87163 27.6968C8.03734 27.6968 8.24448 27.6553 8.49304 27.6139C10.0259 27.4068 12.3458 27.1168 14.7486 26.1639C15.37 25.9154 15.9086 25.6668 16.4057 25.4597C17.8556 24.7968 19.0985 24.2583 20.5899 24.5068C22.2884 24.7968 23.7383 25.5011 25.4369 26.3711C25.934 26.6197 26.4311 26.8682 26.9697 27.1168C29.8282 28.4839 32.6453 28.4425 37.1194 27.8625L37.2852 29.1467C35.5866 29.3539 33.9709 29.561 32.3967 29.561L32.4381 29.5196Z" fill="url(#paint8_linear_853_1447)"/>
<path d="M7.12602 32.7924C3.89468 32.7924 1.36761 31.7567 -0.579482 31.011C-1.11804 30.8039 -1.6566 30.5553 -2.1123 30.431L-1.69803 29.1882C-1.2009 29.3539 -0.662332 29.5611 -0.0823474 29.8096C2.11331 30.6796 4.80609 31.7981 8.45171 31.4667C8.57599 31.4667 8.70028 31.4667 8.82456 31.4667C10.2745 31.3424 13.0087 31.0939 15.743 29.8511C16.6129 29.4782 17.3172 29.0225 17.98 28.6911C19.3471 27.904 20.5071 27.2411 22.0399 27.4483C23.5313 27.6554 24.6913 28.3182 26.017 29.1054C26.597 29.4368 27.1769 29.7682 27.8812 30.1411C30.2011 31.3425 32.8111 31.6739 37.161 31.4253L37.2438 32.7096C32.6868 32.9581 29.8283 32.5438 27.3012 31.2596C26.5969 30.8867 25.9341 30.5139 25.3956 30.2239C24.1113 29.4782 23.117 28.8982 21.8742 28.7325C20.7557 28.5668 19.8857 29.0639 18.6014 29.8096C17.9386 30.1825 17.1929 30.6382 16.2401 31.0525C13.2987 32.3781 10.4402 32.6267 8.90742 32.751C8.78314 32.751 8.65885 32.751 8.53457 32.751C8.03744 32.7924 7.58173 32.8338 7.0846 32.8338L7.12602 32.7924Z" fill="url(#paint9_linear_853_1447)"/>
<path d="M8.32696 36.4795C3.81136 36.4795 0.372876 34.491 -1.6985 33.2896C-1.94706 33.1653 -2.15419 32.9996 -2.36133 32.9167L-1.73992 31.7982C-1.53278 31.9225 -1.28422 32.0467 -1.03566 32.2125C1.03572 33.4139 4.4742 35.4024 8.94837 35.1952H9.11409C10.4398 35.1538 13.5468 34.9881 16.6539 33.4553C17.731 32.9167 18.601 32.3367 19.3052 31.7982C20.6309 30.8868 21.7495 30.0996 23.4066 30.2654C24.7323 30.3896 25.6437 31.0111 26.7622 31.7567C27.3008 32.1296 27.9222 32.5439 28.7093 32.9581C30.8635 34.1595 33.5149 34.7395 37.0777 34.8224V36.1066C33.2663 36.0238 30.4078 35.4024 28.0879 34.0767C27.2593 33.621 26.6379 33.2067 26.0579 32.7924C25.0222 32.0882 24.318 31.6325 23.2823 31.5082C22.1223 31.3839 21.2938 31.9639 20.0924 32.8339C19.3053 33.3724 18.4353 33.9938 17.2753 34.5738C13.8782 36.2723 10.6055 36.3966 9.19693 36.4381H9.03123C8.8241 36.4381 8.57552 36.4381 8.36838 36.4381L8.32696 36.4795Z" fill="url(#paint10_linear_853_1447)"/>
<path d="M9.81845 40.2079C9.65273 40.2079 9.52847 40.2079 9.44561 40.2079C4.14289 40.1665 -0.0412824 37.5566 -2.56836 35.4023L-1.73981 34.4081C0.662985 36.438 4.51573 38.8408 9.48703 38.9237C10.6056 38.9237 14.0855 38.9651 17.6483 37.0594C18.9325 36.3552 19.8853 35.6095 20.7139 34.9466C21.9981 33.9109 23.1167 32.9995 24.8566 33.1238C26.0995 33.2067 26.8037 33.7867 27.7151 34.4909C28.2123 34.9052 28.7923 35.3609 29.6208 35.858C31.7336 37.1423 34.2607 37.9708 37.1192 38.2608L36.9949 39.5451C33.9707 39.2137 31.2779 38.3437 28.958 36.9352C28.0465 36.3966 27.4251 35.8995 26.928 35.4852C26.0995 34.8223 25.6438 34.4495 24.7738 34.4081C23.5724 34.3252 22.7438 34.9466 21.5424 35.9409C20.7139 36.6037 19.6782 37.4323 18.2697 38.178C14.7483 40.0422 11.3927 40.2079 9.85989 40.2079H9.81845Z" fill="url(#paint11_linear_853_1447)"/>
</g>
<path d="M209.008 22.2564C209.008 25.6759 207.21 27.086 204.531 27.086C201.852 27.086 200.09 25.6054 200.09 22.2564V12.2094H211.053V8.47263H200.09V0.893311H196.001V22.2564C196.001 28.0378 199.455 30.8933 204.531 30.8933C209.607 30.8933 213.062 28.0378 213.062 22.2564V21.7981H209.008V22.2564Z" fill="#1D1D1B"/>
<path d="M252.579 19.6481L261.039 30.8584H255.998L249.548 21.8337L243.132 30.8584H238.232L246.622 19.6481L238.232 8.43774H243.132L249.548 17.4624L255.998 8.43774H261.039L252.579 19.6481Z" fill="#1D1D1B"/>
<path d="M157.474 27.0861C153.068 27.0861 150.142 23.9838 150.142 19.683C150.142 15.3822 153.068 12.2799 157.474 12.2799C161.88 12.2799 163.29 14.0426 164.277 16.757H168.577C167.379 11.8217 163.114 8.47266 157.439 8.47266C151.763 8.47266 145.982 13.2318 145.982 19.683C145.982 26.1342 150.741 30.8933 157.439 30.8933C164.136 30.8933 167.344 27.5443 168.577 22.609H164.277C163.255 25.3234 160.787 27.0861 157.474 27.0861Z" fill="#1D1D1B"/>
<path d="M81.9347 8.43774C75.202 8.43774 70.4785 13.1969 70.4785 19.6481C70.4785 26.0993 75.2372 30.8584 81.9347 30.8584C88.6321 30.8584 90.6414 28.3907 92.3686 24.5482H87.6099C86.3056 26.1346 84.3317 27.0511 81.8994 27.0511C77.9162 27.0511 75.1667 24.5129 74.638 20.8819H93.2851C93.3203 20.4941 93.3556 20.0711 93.3556 19.6481C93.3556 13.1616 88.5969 8.43774 81.8994 8.43774H81.9347ZM74.9552 17.2157C75.8365 14.2192 78.4097 12.245 81.9347 12.245C85.4597 12.245 88.0329 14.2192 88.9141 17.2157H74.9552Z" fill="#1D1D1B"/>
<path d="M132.306 8.43774C125.573 8.43774 120.85 13.1969 120.85 19.6481C120.85 26.0993 125.608 30.8584 132.306 30.8584C139.003 30.8584 141.012 28.3907 142.74 24.5482H137.981C136.677 26.1346 134.703 27.0511 132.271 27.0511C128.287 27.0511 125.538 24.5129 125.009 20.8819H143.656C143.691 20.4941 143.727 20.0711 143.727 19.6481C143.727 13.1616 138.968 8.43774 132.271 8.43774H132.306ZM125.291 17.2157C126.172 14.2192 128.746 12.245 132.271 12.245C135.795 12.245 138.369 14.2192 139.25 17.2157H125.291Z" fill="#1D1D1B"/>
<path d="M182.288 8.43774C175.555 8.43774 170.832 13.1969 170.832 19.6481C170.832 26.0993 175.591 30.8584 182.288 30.8584C188.986 30.8584 193.744 26.0993 193.744 19.6481C193.744 13.1969 188.986 8.43774 182.288 8.43774ZM182.288 27.0864C177.882 27.0864 174.956 23.9842 174.956 19.6833C174.956 15.3825 177.882 12.2803 182.288 12.2803C186.694 12.2803 189.62 15.3825 189.62 19.6833C189.62 23.9842 186.694 27.0864 182.288 27.0864Z" fill="#1D1D1B"/>
<path d="M226.775 8.43774C220.043 8.43774 215.319 13.1969 215.319 19.6481C215.319 26.0993 220.078 30.8584 226.775 30.8584C233.473 30.8584 235.482 28.3907 237.209 24.5482H232.451C231.146 26.1346 229.172 27.0511 226.74 27.0511C222.757 27.0511 220.008 24.5129 219.479 20.8819H238.126C238.161 20.4941 238.196 20.0711 238.196 19.6481C238.196 13.1616 233.438 8.43774 226.74 8.43774H226.775ZM219.761 17.2157C220.642 14.2192 223.215 12.245 226.74 12.245C230.265 12.245 232.838 14.2192 233.72 17.2157H219.761Z" fill="#1D1D1B"/>
<path d="M68.257 19.7891V30.8585H64.168V19.7891C64.168 15.171 61.63 12.8091 57.7526 12.8091C53.8751 12.8091 51.3371 15.171 51.3371 19.7891V30.8585H47.2129V9.00183H51.3019V10.7292C53.0291 9.56587 55.2146 9.00183 57.7173 9.00183C64.027 9.00183 68.2217 12.6329 68.2217 19.7891H68.257Z" fill="#1D1D1B"/>
<path d="M107.137 8.43774C100.404 8.43774 95.6807 13.1969 95.6807 19.6481C95.6807 26.0993 100.439 30.8584 107.137 30.8584C113.834 30.8584 118.593 26.0993 118.593 19.6481C118.593 13.1969 113.834 8.43774 107.137 8.43774ZM107.137 27.0864C102.731 27.0864 99.8049 23.9842 99.8049 19.6833C99.8049 15.3825 102.731 12.2803 107.137 12.2803C111.543 12.2803 114.469 15.3825 114.469 19.6833C114.469 23.9842 111.543 27.0864 107.137 27.0864Z" fill="#1D1D1B"/>
<defs>
<linearGradient id="paint0_linear_853_1447" x1="-2.56836" y1="-1.30242" x2="36.7049" y2="-1.30242" gradientUnits="userSpaceOnUse">
<stop stop-color="#9F01FC"/>
<stop offset="1" stop-color="#9F01FC"/>
</linearGradient>
<linearGradient id="paint1_linear_853_1447" x1="-2.40234" y1="1.8047" x2="36.8709" y2="1.8047" gradientUnits="userSpaceOnUse">
<stop stop-color="#AF01F0"/>
<stop offset="1" stop-color="#AF01F0"/>
</linearGradient>
<linearGradient id="paint2_linear_853_1447" x1="-2.23633" y1="4.95312" x2="37.0369" y2="4.95312" gradientUnits="userSpaceOnUse">
<stop stop-color="#BE01E5"/>
<stop offset="1" stop-color="#BE01E5"/>
</linearGradient>
<linearGradient id="paint3_linear_853_1447" x1="-2.02971" y1="8.22583" x2="37.2021" y2="8.22583" gradientUnits="userSpaceOnUse">
<stop stop-color="#CE01DA"/>
<stop offset="1" stop-color="#CE01DA"/>
</linearGradient>
<linearGradient id="paint4_linear_853_1447" x1="-1.86441" y1="11.54" x2="37.3674" y2="11.54" gradientUnits="userSpaceOnUse">
<stop stop-color="#DE01CE"/>
<stop offset="1" stop-color="#DE01CE"/>
</linearGradient>
<linearGradient id="paint5_linear_853_1447" x1="-1.65723" y1="14.7715" x2="37.5332" y2="14.7715" gradientUnits="userSpaceOnUse">
<stop stop-color="#ED01C3"/>
<stop offset="1" stop-color="#ED01C3"/>
</linearGradient>
<linearGradient id="paint6_linear_853_1447" x1="-1.57422" y1="21.027" x2="37.5748" y2="21.027" gradientUnits="userSpaceOnUse">
<stop stop-color="#FD01B7"/>
<stop offset="1" stop-color="#FD01A4"/>
</linearGradient>
<linearGradient id="paint7_linear_853_1447" x1="-1.61523" y1="24.0098" x2="37.4509" y2="24.0098" gradientUnits="userSpaceOnUse">
<stop stop-color="#FD01B7"/>
<stop offset="1" stop-color="#FD0191"/>
</linearGradient>
<linearGradient id="paint8_linear_853_1447" x1="-1.86385" y1="26.9925" x2="37.3266" y2="26.9925" gradientUnits="userSpaceOnUse">
<stop stop-color="#FD01B7"/>
<stop offset="1" stop-color="#FD017E"/>
</linearGradient>
<linearGradient id="paint9_linear_853_1447" x1="-2.1123" y1="30.0582" x2="37.2024" y2="30.0582" gradientUnits="userSpaceOnUse">
<stop stop-color="#FD01B7"/>
<stop offset="1" stop-color="#FD006A"/>
</linearGradient>
<linearGradient id="paint10_linear_853_1447" x1="-2.36133" y1="33.3724" x2="37.0777" y2="33.3724" gradientUnits="userSpaceOnUse">
<stop stop-color="#FD01B7"/>
<stop offset="1" stop-color="#FD0057"/>
</linearGradient>
<linearGradient id="paint11_linear_853_1447" x1="-2.60979" y1="36.6866" x2="37.0363" y2="36.6866" gradientUnits="userSpaceOnUse">
<stop stop-color="#FD01B7"/>
<stop offset="1" stop-color="#FD0044"/>
</linearGradient>
</defs>
</svg>
